<svg width="142" height="28" viewBox="0 0 142 28" fill="none" xmlns="http://www.w3.org/2000/svg">
<path d="M0.285156 27V1.40625H8.16016C10.4102 1.40625 12.4199 1.91602 14.1895 2.93555C15.9707 3.94336 17.3594 5.38477 18.3555 7.25977C19.3516 9.12305 19.8496 11.2441 19.8496 13.623V14.8008C19.8496 17.1797 19.3574 19.2949 18.373 21.1465C17.4004 22.998 16.0234 24.4336 14.2422 25.4531C12.4609 26.4727 10.4512 26.9883 8.21289 27H0.285156ZM5.55859 5.67773V22.7637H8.10742C10.1699 22.7637 11.7461 22.0898 12.8359 20.7422C13.9258 19.3945 14.4824 17.4668 14.5059 14.959V13.6055C14.5059 11.0039 13.9668 9.03516 12.8887 7.69922C11.8105 6.35156 10.2344 5.67773 8.16016 5.67773H5.55859ZM28.7266 27H23.6289V7.98047H28.7266V27ZM23.3301 3.05859C23.3301 2.29688 23.582 1.66992 24.0859 1.17773C24.6016 0.685547 25.2988 0.439453 26.1777 0.439453C27.0449 0.439453 27.7363 0.685547 28.252 1.17773C28.7676 1.66992 29.0254 2.29688 29.0254 3.05859C29.0254 3.83203 28.7617 4.46484 28.2344 4.95703C27.7188 5.44922 27.0332 5.69531 26.1777 5.69531C25.3223 5.69531 24.6309 5.44922 24.1035 4.95703C23.5879 4.46484 23.3301 3.83203 23.3301 3.05859ZM37.6914 7.98047L37.8496 10.1074C39.1973 8.45508 41.0195 7.62891 43.3164 7.62891C45.7656 7.62891 47.4473 8.5957 48.3613 10.5293C49.6973 8.5957 51.6016 7.62891 54.0742 7.62891C56.1367 7.62891 57.6719 8.23242 58.6797 9.43945C59.6875 10.6348 60.1914 12.4395 60.1914 14.8535V27H55.0938V14.8711C55.0938 13.793 54.8828 13.0078 54.4609 12.5156C54.0391 12.0117 53.2949 11.7598 52.2285 11.7598C50.7051 11.7598 49.6504 12.4863 49.0645 13.9395L49.082 27H44.002V14.8887C44.002 13.7871 43.7852 12.9902 43.3516 12.498C42.918 12.0059 42.1797 11.7598 41.1367 11.7598C39.6953 11.7598 38.6523 12.3574 38.0078 13.5527V27H32.9277V7.98047H37.6914ZM75.1328 27C74.8984 26.543 74.7285 25.9746 74.623 25.2949C73.3926 26.666 71.793 27.3516 69.8242 27.3516C67.9609 27.3516 66.4141 26.8125 65.1836 25.7344C63.9648 24.6562 63.3555 23.2969 63.3555 21.6562C63.3555 19.6406 64.0996 18.0938 65.5879 17.0156C67.0879 15.9375 69.25 15.3926 72.0742 15.3809H74.4121V14.291C74.4121 13.4121 74.1836 12.709 73.7266 12.1816C73.2812 11.6543 72.5723 11.3906 71.5996 11.3906C70.7441 11.3906 70.0703 11.5957 69.5781 12.0059C69.0977 12.416 68.8574 12.9785 68.8574 13.6934H63.7773C63.7773 12.5918 64.1172 11.5723 64.7969 10.6348C65.4766 9.69727 66.4375 8.96484 67.6797 8.4375C68.9219 7.89844 70.3164 7.62891 71.8633 7.62891C74.207 7.62891 76.0645 8.2207 77.4355 9.4043C78.8184 10.5762 79.5098 12.2285 79.5098 14.3613V22.6055C79.5215 24.4102 79.7734 25.7754 80.2656 26.7012V27H75.1328ZM70.9316 23.4668C71.6816 23.4668 72.373 23.3027 73.0059 22.9746C73.6387 22.6348 74.1074 22.1836 74.4121 21.6211V18.3516H72.5137C69.9707 18.3516 68.6172 19.2305 68.4531 20.9883L68.4355 21.2871C68.4355 21.9199 68.6582 22.4414 69.1035 22.8516C69.5488 23.2617 70.1582 23.4668 70.9316 23.4668ZM93.7129 21.7441C93.7129 21.123 93.4023 20.6367 92.7812 20.2852C92.1719 19.9219 91.1875 19.5996 89.8281 19.3184C85.3047 18.3691 83.043 16.4473 83.043 13.5527C83.043 11.8652 83.7402 10.459 85.1348 9.33398C86.541 8.19727 88.375 7.62891 90.6367 7.62891C93.0508 7.62891 94.9785 8.19727 96.4199 9.33398C97.873 10.4707 98.5996 11.9473 98.5996 13.7637H93.5195C93.5195 13.0371 93.2852 12.4395 92.8164 11.9707C92.3477 11.4902 91.6152 11.25 90.6191 11.25C89.7637 11.25 89.1016 11.4434 88.6328 11.8301C88.1641 12.2168 87.9297 12.709 87.9297 13.3066C87.9297 13.8691 88.1934 14.3262 88.7207 14.6777C89.2598 15.0176 90.1621 15.3164 91.4277 15.5742C92.6934 15.8203 93.7598 16.1016 94.627 16.418C97.3105 17.4023 98.6523 19.1074 98.6523 21.5332C98.6523 23.2676 97.9082 24.6738 96.4199 25.752C94.9316 26.8184 93.0098 27.3516 90.6543 27.3516C89.0605 27.3516 87.6426 27.0703 86.4004 26.5078C85.1699 25.9336 84.2031 25.1543 83.5 24.1699C82.7969 23.1738 82.4453 22.1016 82.4453 20.9531H87.2617C87.3086 21.8555 87.6426 22.5469 88.2637 23.0273C88.8848 23.5078 89.7168 23.748 90.7598 23.748C91.7324 23.748 92.4648 23.5664 92.957 23.2031C93.4609 22.8281 93.7129 22.3418 93.7129 21.7441ZM111.748 17.6309H107.547V27H102.273V1.40625H111.783C114.807 1.40625 117.139 2.08008 118.779 3.42773C120.42 4.77539 121.24 6.67969 121.24 9.14062C121.24 10.8867 120.859 12.3457 120.098 13.5176C119.348 14.6777 118.205 15.6035 116.67 16.2949L122.207 26.7539V27H116.547L111.748 17.6309ZM107.547 13.3594H111.801C113.125 13.3594 114.15 13.0254 114.877 12.3574C115.604 11.6777 115.967 10.7461 115.967 9.5625C115.967 8.35547 115.621 7.40625 114.93 6.71484C114.25 6.02344 113.201 5.67773 111.783 5.67773H107.547V13.3594ZM129.889 11.9531H132.596C133.885 11.9531 134.84 11.6309 135.461 10.9863C136.082 10.3418 136.393 9.48633 136.393 8.41992C136.393 7.38867 136.082 6.58594 135.461 6.01172C134.852 5.4375 134.008 5.15039 132.93 5.15039C131.957 5.15039 131.143 5.41992 130.486 5.95898C129.83 6.48633 129.502 7.17773 129.502 8.0332H124.422C124.422 6.69727 124.779 5.50195 125.494 4.44727C126.221 3.38086 127.229 2.54883 128.518 1.95117C129.818 1.35352 131.248 1.05469 132.807 1.05469C135.514 1.05469 137.635 1.70508 139.17 3.00586C140.705 4.29492 141.473 6.07617 141.473 8.34961C141.473 9.52148 141.115 10.5996 140.4 11.584C139.686 12.5684 138.748 13.3242 137.588 13.8516C139.029 14.3672 140.102 15.1406 140.805 16.1719C141.52 17.2031 141.877 18.4219 141.877 19.8281C141.877 22.1016 141.045 23.9238 139.381 25.2949C137.729 26.666 135.537 27.3516 132.807 27.3516C130.252 27.3516 128.16 26.6777 126.531 25.3301C124.914 23.9824 124.105 22.2012 124.105 19.9863H129.186C129.186 20.9473 129.543 21.7324 130.258 22.3418C130.984 22.9512 131.875 23.2559 132.93 23.2559C134.137 23.2559 135.08 22.9395 135.76 22.3066C136.451 21.6621 136.797 20.8125 136.797 19.7578C136.797 17.2031 135.391 15.9258 132.578 15.9258H129.889V11.9531Z" fill="#75CFB8"/>
</svg>
